# xmcd
#
# Track frame offsets: 
#        182
#        16932
#        31945
#        46570
#        64910
#        78865
#        95420
#        111187
#        124872
#        136865
#        153397
#        172982
#
# Disc length: 2501 seconds
#
# Revision: 0
# Processed by: cddbd v1.4PL0 Copyright (c) Steve Scherf et al.
# Submitted via: ExactAudioCopy v0.90b4
#
DISCID=8909c30c
DTITLE=Various Artist - Teixeirinha Canta Com os Amigos
DYEAR=1994
DGENRE=Country
TTITLE0=Teixeirinha and Os Monarcas - Velho Casarão
TTITLE1=Teixeirinha and Os Garotos De Ouro - Gaúcho Amigo
TTITLE2=Teixeirinha and Leonardo - Triste Madrugada
TTITLE3=Teixeirinha and Antonio Gringo E Os Quatro Ventos - Será Que Pec
TTITLE3=amos
TTITLE4=Teixeirinha and Teixeirinha Filho - Meu Velho Pai
TTITLE5=Teixeirinha and Os Milongueiros - Pedaços De Mim
TTITLE6=Teixeirinha and Os Serranos - Santa Catarina
TTITLE7=Teixeirinha and Gaúcho Da Fronteira - Passo Fundo Do Coração
TTITLE8=Teixeirinha and Oswaldir E Carlos Magrão - Verde E Amarelo
TTITLE9=Teixeirinha and Os Mirins - A Gaita Velha Do Seu Ary
TTITLE10=Teixeirinha and Os Bertussi - Espero Ser Feliz
TTITLE11=Teixeirinha and Zezinho E Julieta - Meu Nome É Corisco
EXTD=
EXTT0=
EXTT1=
EXTT2=
EXTT3=
EXTT4=
EXTT5=
EXTT6=
EXTT7=
EXTT8=
EXTT9=
EXTT10=
EXTT11=
PLAYORDER=
